:SAMPLES-PER-SECOND 30
:FRAME-RANGE 1-2009
:FULLY-SPECIFIED
:DEGREES
1005
root  -21.8742 38.5582 30.6474 -177.017 -67.0156 -179.609
RightUpLeg  -21.2909 -2.25066 -7.14989
RightLeg  24.0545 -3.872 -2.11234
RightFoot  -9.42118 -0.203728 8.31564
RightToes  2.96424e-010 1.2921e-014 -6.02303e-014
Spine  0.212878 2.53047 13.65
Spine1  7.15937 3.80881 -4.30429
HEad  22.2285 -19.5286 -4.09248
LeftShoulder1  1.32167 -1.33296 -22.4324
LeftArm  -2.15791 13.2574 -53.9044
LeftForeArm  39.8377 2.09506 -13.2872
LeftHand  -0.0334665 5.09885 3.84164
RightShoulder  2.91775 6.60568 23.3579
RightArm  -23.8008 36.9377 55.4375
RightForeArm  51.0202 -5.42449 0.422765
RightHand  0.195987 -6.32423 -24.8403
LeftUpLeg  -8.31324 -17.2793 8.7098
LeftLeg  39.1511 -4.89737 -3.89
LeftFoot  -9.22661 0.270583 -11.6424
LeftToes  -1.2485e-010 1.20979e-011 -1.0929e-011
1006
root  -22.3611 38.7137 29.7541 -178.333 -65.9867 -178.275
RightUpLeg  -19.481 -1.85853 -5.50202
RightLeg  23.3729 -3.12221 -1.70195
RightFoot  -12.2746 -0.0197443 7.81042
RightToes  2.96424e-010 1.2921e-014 -6.02303e-014
Spine  0.103524 2.52353 14.12
Spine1  7.54573 3.72239 -3.73186
HEad  21.7783 -17.5769 -3.41965
LeftShoulder1  1.19336 -0.891059 -22.3691
LeftArm  -4.02669 15.3548 -54.2889
LeftForeArm  41.4565 3.29965 -12.8542
LeftHand  -0.0297543 5.21539 2.91125
RightShoulder  2.85119 5.929 24.8675
RightArm  -26.5781 31.3504 52.7792
RightForeArm  54.5971 -5.19634 -0.29994
RightHand  0.129512 -5.96625 -26.5508
LeftUpLeg  -10.7948 -15.6458 8.73549
LeftLeg  45.3162 -1.83 -1.57103
LeftFoot  -4.31432 0.501163 -7.73406
LeftToes  -1.2485e-010 1.20979e-011 -1.0929e-011
1007
root  -22.8777 38.8547 28.8771 -179.055 -64.2514 -177.721
RightUpLeg  -17.6011 -2.43569 -4.14018
RightLeg  22.6499 -0.99724 -0.680385
RightFoot  -14.7937 0.109491 6.95862
RightToes  2.96424e-010 1.2921e-014 -6.02303e-014
Spine  0.312624 2.4263 14.0657
Spine1  7.55996 3.64563 -3.55507
HEad  21.2789 -15.1842 -2.35296
LeftShoulder1  1.00921 -0.228767 -22.4907
LeftArm  -4.27192 18.0238 -54.1078
LeftForeArm  41.5355 3.19939 -12.877
LeftHand  -0.0291379 5.2398 2.39193
RightShoulder  2.75135 5.22907 26.2861
RightArm  -29.986 25.913 50.4604
RightForeArm  57.8328 -4.84206 -1.76736
RightHand  0.246015 -6.37407 -28.7305
LeftUpLeg  -12.3115 -13.351 8.14016
LeftLeg  49.8281 1.39343 2.21668
LeftFoot  -3.94753 0.526121 -7.76922
LeftToes  -1.2485e-010 1.20979e-011 -1.0929e-011
1008
root  -23.4333 38.9823 28.0102 -179.203 -62.6343 -177.577
RightUpLeg  -15.6947 -2.13546 -3.09366
RightLeg  21.6363 -0.0682956 -0.251352
RightFoot  -16.9436 0.236676 7.17973
RightToes  2.96424e-010 1.2921e-014 -6.02303e-014
Spine  0.267508 2.32141 13.6326
Spine1  7.52699 3.48038 -3.3512
HEad  21.0174 -13.011 -1.47506
LeftShoulder1  0.854394 0.339421 -22.753
LeftArm  -3.85134 20.354 -53.7851
LeftForeArm  40.8152 3.29569 -13.1474
LeftHand  -0.0216903 5.07059 2.65651
RightShoulder  2.5208 4.31025 27.1693
RightArm  -31.7165 20.1716 47.9109
RightForeArm  60.3793 -4.70059 -2.09844
RightHand  0.386755 -6.79909 -31.0937
LeftUpLeg  -13.7686 -11.2772 7.21784
LeftLeg  52.3933 3.23441 4.96982
LeftFoot  -4.78421 0.453703 -7.41349
LeftToes  -1.2485e-010 1.20979e-011 -1.0929e-011
1009
root  -23.9959 39.0851 27.184 -179.102 -61.6345 -177.452
RightUpLeg  -13.997 -2.65631 -2.21225
RightLeg  20.715 1.14082 0.230993
RightFoot  -18.774 0.302787 6.61653
RightToes  2.96424e-010 1.2921e-014 -6.02303e-014
Spine  -0.0703948 2.12643 13.2698
Spine1  7.62949 3.20129 -3.16482
HEad  20.7326 -11.269 -0.674119
LeftShoulder1  0.701385 0.874314 -22.7976
LeftArm  -4.37914 22.1571 -53.7497
LeftForeArm  40.8128 3.55337 -13.0684
LeftHand  -0.0203167 5.02921 2.60838
RightShoulder  2.30017 3.5724 27.5109
RightArm  -31.8613 14.303 44.8791
RightForeArm  62.6549 -4.74361 -1.3972
RightHand  0.190481 -6.03524 -32.9266
LeftUpLeg  -15.5389 -9.84863 6.33081
LeftLeg  52.9084 3.655 5.65215
LeftFoot  -5.28122 0.405746 -7.06201
LeftToes  -1.2485e-010 1.20979e-011 -1.0929e-011
1010
root  -24.5671 39.1428 26.3717 -178.975 -61.2076 -177.426
RightUpLeg  -12.2491 -3.67948 -1.54063
RightLeg  19.9671 2.31701 0.70107
RightFoot  -20.3149 0.367182 6.43021
RightToes  2.96424e-010 1.2921e-014 -6.02303e-014
Spine  -0.247421 1.83558 12.7703
Spine1  7.50677 2.82094 -2.99022
HEad  20.4698 -9.99994 -0.0291655
LeftShoulder1  0.563736 1.34036 -22.6252
LeftArm  -4.87184 23.4288 -53.7462
LeftForeArm  41.145 3.79328 -12.9607
LeftHand  -0.0233786 5.15249 2.43921
RightShoulder  2.11146 2.94997 27.8183
RightArm  -29.4649 8.53155 41.2101
RightForeArm  63.2757 -5.09633 0.788102
RightHand  0.00660417 -5.4001 -33.7583
LeftUpLeg  -17.3397 -8.87584 5.3654
LeftLeg  51.7484 3.70697 5.49388
LeftFoot  -6.71782 0.3274 -7.10767
LeftToes  -1.2485e-010 1.20979e-011 -1.0929e-011
1011
root  -25.1548 39.1679 25.5858 -178.537 -61.0422 -177.615
RightUpLeg  -10.662 -5.24162 -1.20551
RightLeg  19.3073 3.81844 1.40941
RightFoot  -21.5412 0.392946 6.03597
RightToes  2.96424e-010 1.2921e-014 -6.02303e-014
Spine  -0.58871 1.61399 12.5122
Spine1  7.43713 2.54219 -3.1137
HEad  20.014 -9.00399 0.279812
LeftShoulder1  0.485049 1.61178 -22.5748
LeftArm  -5.16574 24.1667 -53.5841
LeftForeArm  41.1899 3.99781 -12.8843
LeftHand  -0.0262882 5.20759 2.2692
RightShoulder  1.9597 2.55279 27.4941
RightArm  -26.5844 4.10101 38.2776
RightForeArm  63.9106 -5.40999 2.77875
RightHand  -0.240044 -4.61394 -35.6131
LeftUpLeg  -19.2961 -8.05163 4.30266
LeftLeg  49.1967 4.15436 5.57841
LeftFoot  -8.12054 0.245469 -6.99605
LeftToes  -1.2485e-010 1.20979e-011 -1.0929e-011
1012
root  -25.7594 39.1878 24.8038 -177.832 -61.0295 -178.099
RightUpLeg  -8.93954 -6.4176 -1.1351
RightLeg  18.403 4.85125 1.99005
RightFoot  -22.4652 0.426014 5.93583
RightToes  2.96424e-010 1.2921e-014 -6.02303e-014
Spine  -0.84394 1.43617 12.0487
Spine1  7.2896 2.2959 -3.27718
HEad  19.5877 -8.08469 0.326765
LeftShoulder1  0.399271 1.91242 -22.6023
LeftArm  -5.07281 24.3589 -53.2428
LeftForeArm  40.7702 4.18435 -12.9056
LeftHand  -0.0270028 5.24532 2.37617
RightShoulder  1.84803 2.3312 26.7942
RightArm  -24.0372 1.08701 36.5649
RightForeArm  65.2527 -5.60631 4.24824
RightHand  -0.238976 -4.64528 -37.0507
LeftUpLeg  -21.1199 -7.46059 3.17612
LeftLeg  45.1744 5.01015 5.78232
LeftFoot  -8.69027 0.216625 -7.10743
LeftToes  -1.2485e-010 1.20979e-011 -1.0929e-011
1013
root  -26.3728 39.2079 24.0352 -176.781 -60.8173 -178.876
RightUpLeg  -7.25568 -7.17286 -1.30498
RightLeg  17.3365 5.68897 2.50853
RightFoot  -22.9926 0.44194 5.85671
RightToes  2.96424e-010 1.2921e-014 -6.02303e-014
Spine  -1.04474 1.49556 11.7603
Spine1  7.0783 2.37341 -3.81488
HEad  19.2764 -7.57443 0.357377
LeftShoulder1  0.343097 2.11292 -22.7211
LeftArm  -5.51836 24.142 -52.8628
LeftForeArm  40.8605 4.37475 -12.6647
LeftHand  -0.0294927 5.35176 2.46281
RightShoulder  1.86486 2.56371 25.743
RightArm  -21.0103 -1.09699 35.9825
RightForeArm  64.757 -5.89707 5.90547
RightHand  -0.323641 -4.37054 -36.3727
LeftUpLeg  -22.7571 -6.9943 2.11419
LeftLeg  39.6957 5.87977 5.58313
LeftFoot  -8.30994 0.239641 -7.1703
LeftToes  -1.2485e-010 1.20979e-011 -1.0929e-011
1014
root  -27.0037 39.2182 23.2779 -175.549 -60.2976 -179.872
RightUpLeg  -5.60609 -7.34293 -1.58221
RightLeg  16.195 6.1512 2.75192
RightFoot  -22.9509 0.463725 6.08901
RightToes  2.96424e-010 1.2921e-014 -6.02303e-014
Spine  -1.03665 1.72126 11.6356
Spine1  6.82599 2.75209 -4.83025
HEad  18.8067 -7.16547 0.482744
LeftShoulder1  0.296951 2.27768 -22.8556
LeftArm  -5.37614 23.4876 -52.3361
LeftForeArm  40.2818 4.45538 -12.6282
LeftHand  -0.0292441 5.28142 2.61106
RightShoulder  1.88324 2.70164 25.3025
RightArm  -19.4226 -1.5058 36.9336
RightForeArm  63.0924 -6.09935 6.78057
RightHand  -0.37177 -4.21628 -36.2012
LeftUpLeg  -24.1268 -7.11903 1.1549
LeftLeg  33.0966 6.79087 5.09404
LeftFoot  -6.83948 0.304798 -6.70744
LeftToes  -1.2485e-010 1.20979e-011 -1.0929e-011
